<svg id="Layer_1" data-name="Layer 1" xmlns="http://www.w3.org/2000/svg" viewBox="0 0 585.96 176.91"><defs><style>.cls-1{fill:#231f20;}.cls-2{fill:#7a4c9e;}.cls-3{fill:#fff;}</style></defs><title>diagonal-text</title><rect class="cls-1" x="58.52" y="31.72" width="506.35" height="55.56" transform="translate(-61.92 36.51) rotate(-6.91)"/><rect class="cls-2" x="217.41" y="106.39" width="424.24" height="60.61" transform="translate(-63.75 21.85) rotate(-3.08)"/><path class="cls-3" d="M234.1,137.88l5.7-.31a4.28,4.28,0,0,1,3.65,1.32q1.25,1.44,1.44,4.86a13.51,13.51,0,0,1-.26,3.85,4,4,0,0,1-1.44,2.3,5.36,5.36,0,0,1-3,.89l-2.49.13.37,7-2.92.16Zm6.43,9.92a1.41,1.41,0,0,0,1.42-1,7.56,7.56,0,0,0,.21-2.73,9,9,0,0,0-.49-2.65,1.36,1.36,0,0,0-1.44-1l-3,.16.4,7.36Z" transform="translate(-57.02 -1.44)"/><path class="cls-3" d="M246.8,157.4l3.71-20.4,3.87-.21,5.93,19.89-3.1.16-1-3.79-5.71.31-.63,3.88Zm4.21-7.22,4.35-.23-2.68-10Z" transform="translate(-57.02 -1.44)"/><path class="cls-3" d="M262.87,156.54l-1.08-20.15,6.27-.34a5.11,5.11,0,0,1,3,.59,3.91,3.91,0,0,1,1.58,2,10.8,10.8,0,0,1,.57,3.14,15.06,15.06,0,0,1,0,2.34,5.6,5.6,0,0,1-.53,1.95,3.43,3.43,0,0,1-1.27,1.41l3.26,8.4-3,.16-3-7.82-3.28.17.42,8Zm2.34-11,3.59-.19a1.52,1.52,0,0,0,1.12-.48,2.32,2.32,0,0,0,.47-1.15,7.93,7.93,0,0,0,.06-1.57,10,10,0,0,0-.21-1.58,2.81,2.81,0,0,0-.55-1.22,1.29,1.29,0,0,0-1.11-.43l-3.72.2Z" transform="translate(-57.02 -1.44)"/><path class="cls-3" d="M280,155.62l-.92-17.07-4.05.22-.16-3.09,11-.59.17,3.09-4.05.21.92,17.07Z" transform="translate(-57.02 -1.44)"/><path class="cls-3" d="M292,147.21l-5.68-12.14,3.08-.17,3.87,8.48,2.93-8.84,3-.16-4.25,12.67.42,7.75-2.92.15Z" transform="translate(-57.02 -1.44)"/><path class="cls-3" d="M313.31,154.18a7.94,7.94,0,0,1-3.25-.39,4.57,4.57,0,0,1-2-1.43,6.1,6.1,0,0,1-1.1-2.24,12.92,12.92,0,0,1-.43-2.79l-.34-6.3a13.55,13.55,0,0,1,.12-2.88,6.2,6.2,0,0,1,.85-2.39,4.67,4.67,0,0,1,1.87-1.69,8,8,0,0,1,3.2-.74,7.06,7.06,0,0,1,3.13.44,4.8,4.8,0,0,1,2,1.54,6.82,6.82,0,0,1,1.08,2.36,15.23,15.23,0,0,1,.43,2.88l.31,5.88a13.23,13.23,0,0,1-.12,2.84,6.81,6.81,0,0,1-.83,2.42,4.72,4.72,0,0,1-1.81,1.73A7.09,7.09,0,0,1,313.31,154.18Zm-.17-3.18a3.56,3.56,0,0,0,2.43-.88,3.79,3.79,0,0,0,.67-2.86l-.4-7.3a3.85,3.85,0,0,0-1-2.79,3.52,3.52,0,0,0-2.51-.66,4,4,0,0,0-2.52.91,3.57,3.57,0,0,0-.79,2.9l.39,7.31a3.46,3.46,0,0,0,1.09,2.76A4,4,0,0,0,313.14,151Z" transform="translate(-57.02 -1.44)"/><path class="cls-3" d="M328.94,153.34a7.93,7.93,0,0,1-3.08-.34,4.33,4.33,0,0,1-1.94-1.32,5.7,5.7,0,0,1-1-2.09,12.68,12.68,0,0,1-.4-2.67l-.74-13.77,2.92-.16.75,13.95a3.43,3.43,0,0,0,1,2.65,3.6,3.6,0,0,0,2.38.57,3.16,3.16,0,0,0,2.23-.83,3.71,3.71,0,0,0,.59-2.72l-.75-14,2.93-.16.73,13.61a14.11,14.11,0,0,1-.1,2.71,6.06,6.06,0,0,1-.77,2.25,4.23,4.23,0,0,1-1.71,1.58A7.48,7.48,0,0,1,328.94,153.34Z" transform="translate(-57.02 -1.44)"/><path class="cls-3" d="M341,152.34l-.92-17.07-4,.22-.17-3.09,11-.59.16,3.09-4,.21.92,17.07Z" transform="translate(-57.02 -1.44)"/><path class="cls-3" d="M352.73,131.5l2.83-.16,3.26,13.81,1.8-14.08,2.47-.13,3.66,13.63,1.62-13.92,2.8-.15-2.67,20.36-2.45.13-3.83-14.21-2,14.52-2.62.14Z" transform="translate(-57.02 -1.44)"/><path class="cls-3" d="M374,147.52l2.65-.14-.76-14.11-2.64.15-.17-3,8.19-.44.17,3-2.63.15.76,14.1,2.62-.14.17,3-8.19.44Z" transform="translate(-57.02 -1.44)"/><path class="cls-3" d="M388.37,149.79l-.92-17.07-4,.22-.17-3.09,11-.59.16,3.09-4,.21.92,17.07Z" transform="translate(-57.02 -1.44)"/><path class="cls-3" d="M396.49,129.14l2.94-.16.46,8.58,6.38-.35-.46-8.57,2.93-.16,1.08,20.15-2.93.16-.45-8.4-6.38.35.45,8.39-2.93.16Z" transform="translate(-57.02 -1.44)"/><path class="cls-3" d="M424.63,148.19a8,8,0,0,1-3.09-.34,4.22,4.22,0,0,1-1.93-1.32,5.34,5.34,0,0,1-1-2.09,12.67,12.67,0,0,1-.41-2.66L417.42,128l2.92-.16.76,14a3.39,3.39,0,0,0,1,2.64,3.63,3.63,0,0,0,2.39.57,3.15,3.15,0,0,0,2.23-.83,3.76,3.76,0,0,0,.59-2.72l-.75-14,2.92-.16.73,13.61a14.11,14.11,0,0,1-.1,2.71,6.05,6.05,0,0,1-.76,2.25,4.19,4.19,0,0,1-1.72,1.58A7.26,7.26,0,0,1,424.63,148.19Z" transform="translate(-57.02 -1.44)"/><path class="cls-3" d="M439.06,147.41a9.25,9.25,0,0,1-3-.33,8.58,8.58,0,0,1-2.67-1.19l.84-3a10,10,0,0,0,2.07,1,6.13,6.13,0,0,0,2.54.37,2.16,2.16,0,0,0,1.33-.43,1.73,1.73,0,0,0,.57-1,5.72,5.72,0,0,0,.08-1.47,3.62,3.62,0,0,0-.19-1,1.93,1.93,0,0,0-.61-.84,4,4,0,0,0-1.35-.69l-2.53-.88a4.41,4.41,0,0,1-1.91-1.22,5,5,0,0,1-1-1.88,10.87,10.87,0,0,1-.39-2.37,6.58,6.58,0,0,1,.5-3.15,4.44,4.44,0,0,1,1.71-1.94,5.46,5.46,0,0,1,2.54-.74,8.87,8.87,0,0,1,2.67.24,6.8,6.8,0,0,1,2.28,1.07l-.67,2.89A8.93,8.93,0,0,0,440,130a5.78,5.78,0,0,0-2-.24,3,3,0,0,0-1.75.56,2.05,2.05,0,0,0-.56,1.81,2.87,2.87,0,0,0,.47,1.57,3.41,3.41,0,0,0,1.55,1l2.53.89a4.31,4.31,0,0,1,2.31,1.83,7.83,7.83,0,0,1,.94,3.67,9.19,9.19,0,0,1-.33,3.12,4.74,4.74,0,0,1-1.42,2.29A4.26,4.26,0,0,1,439.06,147.41Z" transform="translate(-57.02 -1.44)"/><path class="cls-3" d="M450.74,126.22l8.79-.47.17,3.1-5.87.31.3,5.49,5.46-.29.16,2.9-5.46.3.46,8.66-2.92.15Z" transform="translate(-57.02 -1.44)"/><path class="cls-3" d="M469.54,145.77a7.79,7.79,0,0,1-3.25-.38,4.67,4.67,0,0,1-2-1.44,6.12,6.12,0,0,1-1.11-2.24,13.37,13.37,0,0,1-.43-2.78l-.34-6.31a15,15,0,0,1,.12-2.88,6.43,6.43,0,0,1,.85-2.39,4.61,4.61,0,0,1,1.88-1.68,7.93,7.93,0,0,1,3.19-.74,7,7,0,0,1,3.13.43,4.68,4.68,0,0,1,2,1.55,6.78,6.78,0,0,1,1.09,2.35,15.24,15.24,0,0,1,.42,2.88l.32,5.89a13.83,13.83,0,0,1-.13,2.83,6.62,6.62,0,0,1-.83,2.42,4.62,4.62,0,0,1-1.8,1.73A7,7,0,0,1,469.54,145.77Zm-.17-3.18a3.56,3.56,0,0,0,2.43-.88,3.78,3.78,0,0,0,.66-2.86l-.39-7.3a3.83,3.83,0,0,0-1-2.78,3.4,3.4,0,0,0-2.5-.66,3.94,3.94,0,0,0-2.53.91,3.52,3.52,0,0,0-.78,2.9l.39,7.3a3.45,3.45,0,0,0,1.09,2.77A4,4,0,0,0,469.37,142.59Z" transform="translate(-57.02 -1.44)"/><path class="cls-3" d="M479.18,144.9l-1.08-20.15,6.27-.34a5.09,5.09,0,0,1,3,.59,3.9,3.9,0,0,1,1.58,2,11.12,11.12,0,0,1,.58,3.14,16.35,16.35,0,0,1,0,2.34,5.6,5.6,0,0,1-.52,2,3.53,3.53,0,0,1-1.28,1.41l3.27,8.4-3,.16-3-7.82-3.29.17.43,8Zm2.34-11,3.6-.19a1.48,1.48,0,0,0,1.11-.48,2.23,2.23,0,0,0,.47-1.15,7.93,7.93,0,0,0,.06-1.57,10,10,0,0,0-.21-1.58,2.81,2.81,0,0,0-.55-1.22,1.27,1.27,0,0,0-1.11-.43l-3.71.2Z" transform="translate(-57.02 -1.44)"/><path class="cls-3" d="M501.42,143.7l-.92-17.06-4,.22-.17-3.09,11-.59.16,3.08-4,.22.92,17.07Z" transform="translate(-57.02 -1.44)"/><path class="cls-3" d="M509.54,123.06l2.94-.16.46,8.57,6.38-.34-.47-8.57,2.94-.16,1.08,20.15-2.93.16-.45-8.4-6.38.34.45,8.4-2.93.16Z" transform="translate(-57.02 -1.44)"/><path class="cls-3" d="M526.61,142.35l-1.08-20.15,6.27-.34a5.09,5.09,0,0,1,3,.59,3.88,3.88,0,0,1,1.58,2,11.27,11.27,0,0,1,.58,3.15,16.35,16.35,0,0,1,0,2.34,5.66,5.66,0,0,1-.52,1.95,3.53,3.53,0,0,1-1.28,1.41l3.27,8.39-3,.17-3-7.83-3.29.18.43,8Zm2.34-11,3.6-.2a1.46,1.46,0,0,0,1.11-.47,2.36,2.36,0,0,0,.47-1.15,8,8,0,0,0,.06-1.57,10,10,0,0,0-.21-1.58,2.76,2.76,0,0,0-.55-1.22,1.25,1.25,0,0,0-1.11-.43l-3.71.2Z" transform="translate(-57.02 -1.44)"/><path class="cls-3" d="M540.14,121.41l9.52-.51.16,3.06-6.6.35.28,5.35,5.86-.31.16,2.92-5.86.32.31,5.76,6.71-.36.17,3-9.63.52Z" transform="translate(-57.02 -1.44)"/><path class="cls-3" d="M552.88,120.72l9.52-.51.16,3.06-6.61.36.29,5.35,5.86-.32.16,2.93-5.86.31.31,5.76,6.71-.36.17,3.06-9.63.52Z" transform="translate(-57.02 -1.44)"/><path class="cls-3" d="M571.78,139.92l-1.09-20.15,6.3-.34a5.08,5.08,0,0,1,3.32.76,4.83,4.83,0,0,1,1.76,2.44,12.52,12.52,0,0,1,.66,3.54l.33,6.18a12.15,12.15,0,0,1-.3,3.61,4.78,4.78,0,0,1-1.51,2.55,5.12,5.12,0,0,1-3.16,1.07Zm2.75-3.31,3.13-.17a2.45,2.45,0,0,0,2.07-.91,4.29,4.29,0,0,0,.43-2.5l-.39-7.23a4.37,4.37,0,0,0-.71-2.47,2.35,2.35,0,0,0-2.14-.73l-3.13.16Z" transform="translate(-57.02 -1.44)"/><path class="cls-3" d="M585.66,139.17l3.7-20.41,3.88-.21,5.92,19.89-3.1.17-1-3.79-5.71.31-.63,3.88Zm4.2-7.22,4.35-.24-2.68-10Z" transform="translate(-57.02 -1.44)"/><path class="cls-3" d="M603.31,130.46l-5.68-12.14,3.08-.17,3.87,8.47,2.93-8.83,3-.16-4.24,12.67.42,7.74-2.92.16Z" transform="translate(-57.02 -1.44)"/><path class="cls-3" d="M618.22,137.77a9.25,9.25,0,0,1-3-.33,8.58,8.58,0,0,1-2.67-1.19l.85-3a9.88,9.88,0,0,0,2.06,1,6.3,6.3,0,0,0,2.54.37,2.22,2.22,0,0,0,1.34-.43,1.72,1.72,0,0,0,.56-1,5.69,5.69,0,0,0,.09-1.47,3.62,3.62,0,0,0-.2-1,1.93,1.93,0,0,0-.61-.84,4.05,4.05,0,0,0-1.34-.69l-2.54-.88a4.47,4.47,0,0,1-1.91-1.22,5,5,0,0,1-1-1.88,10.87,10.87,0,0,1-.39-2.37,6.58,6.58,0,0,1,.5-3.15,4.44,4.44,0,0,1,1.71-1.94,5.5,5.5,0,0,1,2.55-.74,8.83,8.83,0,0,1,2.66.24,6.71,6.71,0,0,1,2.28,1.07l-.67,2.89a8.93,8.93,0,0,0-1.81-.79,5.78,5.78,0,0,0-2-.24,3,3,0,0,0-1.74.56,2,2,0,0,0-.57,1.81,2.78,2.78,0,0,0,.48,1.57,3.37,3.37,0,0,0,1.54,1l2.53.89a4.31,4.31,0,0,1,2.31,1.83,7.83,7.83,0,0,1,.94,3.67,9.19,9.19,0,0,1-.33,3.12,4.74,4.74,0,0,1-1.42,2.29A4.2,4.2,0,0,1,618.22,137.77Z" transform="translate(-57.02 -1.44)"/><path class="cls-3" d="M626.49,131.36c-.2-1.79-.4-3.5-.59-5.14s-.35-3.12-.5-4.44-.26-2.42-.35-3.29-.14-1.42-.16-1.65l2.55-.14c0,.23,0,.76,0,1.6s0,1.92,0,3.23,0,2.81-.07,4.47-.06,3.44-.11,5.32Zm-.71,5.65-.19-3.63,2.75-.15.2,3.63Z" transform="translate(-57.02 -1.44)"/><path class="cls-3" d="M74.08,99.71,76.41,79.1l3.86-.47,7.24,19.45-3.08.37-1.27-3.71-5.68.69-.36,3.91Zm3.71-7.49,4.33-.52-3.35-9.83Z" transform="translate(-57.02 -1.44)"/><path class="cls-3" d="M92.68,77.13l5.66-.69a4.27,4.27,0,0,1,3.73,1.07c.89.91,1.48,2.49,1.75,4.75a13.47,13.47,0,0,1,0,3.87,4,4,0,0,1-1.29,2.39,5.35,5.35,0,0,1-2.89,1.08l-2.48.3L98,96.81l-2.91.35Zm7.07,9.47a1.42,1.42,0,0,0,1.35-1.07,7.72,7.72,0,0,0,0-2.73,9,9,0,0,0-.67-2.62,1.36,1.36,0,0,0-1.5-.91l-3,.37L96.82,87Z" transform="translate(-57.02 -1.44)"/><path class="cls-3" d="M105.75,75.54l2.91-.35,2,16.88,6-.73.38,3.15-8.94,1.09Z" transform="translate(-57.02 -1.44)"/><path class="cls-3" d="M118.47,94.33l2.33-20.61,3.86-.47L131.9,92.7l-3.08.37-1.27-3.71-5.67.69L121.51,94Zm3.72-7.49,4.32-.52-3.35-9.83Z" transform="translate(-57.02 -1.44)"/><path class="cls-3" d="M140.11,92.06a7.92,7.92,0,0,1-3.19-.14,4.11,4.11,0,0,1-2-1.24,5.76,5.76,0,0,1-1.13-2.09,15.06,15.06,0,0,1-.57-2.71l-.81-6.69a16.49,16.49,0,0,1-.11-2.85,6.07,6.07,0,0,1,.58-2.36,4.15,4.15,0,0,1,1.66-1.72,7.8,7.8,0,0,1,3.08-.92,7.16,7.16,0,0,1,3,.16,3.91,3.91,0,0,1,1.89,1.26,6.06,6.06,0,0,1,1.07,2.14,17.8,17.8,0,0,1,.54,2.78l0,.24-2.79.81-.12-1a7.56,7.56,0,0,0-.52-2.15,1.74,1.74,0,0,0-1-1,3.88,3.88,0,0,0-1.76-.1,3.41,3.41,0,0,0-2.3,1,3.73,3.73,0,0,0-.44,2.86l.92,7.57a5.23,5.23,0,0,0,.59,2.06,1.9,1.9,0,0,0,1.17.86,5,5,0,0,0,1.81.05,4.65,4.65,0,0,0,1.69-.47,1.61,1.61,0,0,0,.75-1.11,7.35,7.35,0,0,0,0-2.2l-.07-.63,2.85-.35,0,.37a17.58,17.58,0,0,1,.13,2.75,5.65,5.65,0,0,1-.5,2.27,3.8,3.8,0,0,1-1.54,1.65A7.36,7.36,0,0,1,140.11,92.06Z" transform="translate(-57.02 -1.44)"/><path class="cls-3" d="M146.44,70.61l9.47-1.15.37,3-6.57.8.64,5.32,5.83-.7.35,2.9-5.82.7.69,5.73,6.67-.81.37,3-9.57,1.16Z" transform="translate(-57.02 -1.44)"/><path class="cls-3" d="M169.12,88.19l-2.06-17-4,.49-.37-3.07,10.94-1.32.37,3.07-4,.48,2.06,17Z" transform="translate(-57.02 -1.44)"/><path class="cls-3" d="M184.42,86.69a8,8,0,0,1-3.27-.16,4.69,4.69,0,0,1-2.13-1.3,6.23,6.23,0,0,1-1.25-2.16,13.65,13.65,0,0,1-.62-2.75l-.76-6.27a14.81,14.81,0,0,1-.07-2.88,6.46,6.46,0,0,1,.69-2.45,4.66,4.66,0,0,1,1.76-1.8,7.87,7.87,0,0,1,3.14-1,7,7,0,0,1,3.15.22,4.74,4.74,0,0,1,2.09,1.41,7,7,0,0,1,1.24,2.28,14.56,14.56,0,0,1,.61,2.84l.71,5.85a14.36,14.36,0,0,1,.07,2.84,6.79,6.79,0,0,1-.67,2.47,4.67,4.67,0,0,1-1.69,1.85A7,7,0,0,1,184.42,86.69ZM184,83.53a3.55,3.55,0,0,0,2.36-1,3.76,3.76,0,0,0,.48-2.9L186,72.33a3.88,3.88,0,0,0-1.16-2.71,3.45,3.45,0,0,0-2.55-.49,3.91,3.91,0,0,0-2.45,1.08,3.51,3.51,0,0,0-.6,2.94l.88,7.26a3.47,3.47,0,0,0,1.27,2.69A4,4,0,0,0,184,83.53Z" transform="translate(-57.02 -1.44)"/><path class="cls-3" d="M207.94,90.84l-4-6.58a5.81,5.81,0,0,1-3.35-.85,5.16,5.16,0,0,1-1.85-2.33,12.51,12.51,0,0,1-.83-3.28l-.76-6.27a14.78,14.78,0,0,1-.07-2.88,6.41,6.41,0,0,1,.69-2.44,4.59,4.59,0,0,1,1.75-1.81,8.09,8.09,0,0,1,3.15-1,7,7,0,0,1,3.15.23,4.71,4.71,0,0,1,2.08,1.4,6.77,6.77,0,0,1,1.24,2.28,14.83,14.83,0,0,1,.62,2.85l.71,5.85a13.49,13.49,0,0,1,0,3.36,5.8,5.8,0,0,1-1.14,2.78,5.21,5.21,0,0,1-2.79,1.72L209.68,89ZM204.81,81a3.55,3.55,0,0,0,2.36-1,3.75,3.75,0,0,0,.47-2.89l-.88-7.26a3.87,3.87,0,0,0-1.15-2.72,3.49,3.49,0,0,0-2.55-.49,4,4,0,0,0-2.46,1.08,3.57,3.57,0,0,0-.59,2.94l.88,7.26a3.45,3.45,0,0,0,1.27,2.69A4,4,0,0,0,204.81,81Z" transform="translate(-57.02 -1.44)"/><path class="cls-3" d="M220.73,82.29a7.91,7.91,0,0,1-3.1-.13,4.26,4.26,0,0,1-2-1.19,5.53,5.53,0,0,1-1.18-2,13.22,13.22,0,0,1-.58-2.63l-1.66-13.69,2.91-.35,1.68,13.87a3.39,3.39,0,0,0,1.15,2.57,3.55,3.55,0,0,0,2.42.41,3.16,3.16,0,0,0,2.17-1,3.76,3.76,0,0,0,.4-2.75l-1.68-13.87,2.91-.35,1.64,13.53a14.67,14.67,0,0,1,.08,2.71,6,6,0,0,1-.61,2.29,4.2,4.2,0,0,1-1.61,1.69A7.09,7.09,0,0,1,220.73,82.29Z" transform="translate(-57.02 -1.44)"/><path class="cls-3" d="M227.73,60.76l9.47-1.15.36,3-6.56.8.64,5.32,5.83-.71.35,2.91-5.83.7.7,5.73,6.67-.81.37,3-9.57,1.16Z" transform="translate(-57.02 -1.44)"/><path class="cls-3" d="M240.4,59.22l2.18-.26,9.17,12.83-1.66-13.74,2.58-.31,2.43,20-2.19.27L243.8,65.41l1.64,13.53-2.62.32Z" transform="translate(-57.02 -1.44)"/><path class="cls-3" d="M264.63,77a7.93,7.93,0,0,1-3.19-.14,4.13,4.13,0,0,1-2-1.24,5.77,5.77,0,0,1-1.14-2.09,15.07,15.07,0,0,1-.56-2.71l-.81-6.69a16.55,16.55,0,0,1-.12-2.85,6.08,6.08,0,0,1,.59-2.36A4.2,4.2,0,0,1,259,57.16a7.86,7.86,0,0,1,3.08-.91,7.15,7.15,0,0,1,3,.16,3.94,3.94,0,0,1,1.9,1.26,6,6,0,0,1,1.06,2.14,17.54,17.54,0,0,1,.55,2.78l0,.24-2.79.81-.13-1a7.28,7.28,0,0,0-.51-2.15,1.75,1.75,0,0,0-1-1,3.87,3.87,0,0,0-1.76-.1,3.46,3.46,0,0,0-2.3,1,3.73,3.73,0,0,0-.43,2.86l.91,7.57a5.05,5.05,0,0,0,.6,2.06,1.88,1.88,0,0,0,1.16.86,5.1,5.1,0,0,0,1.82,0,4.65,4.65,0,0,0,1.69-.47,1.57,1.57,0,0,0,.74-1.11,7,7,0,0,0,0-2.2l-.08-.64,2.85-.34.05.36a17.76,17.76,0,0,1,.13,2.76,5.82,5.82,0,0,1-.51,2.27,3.75,3.75,0,0,1-1.54,1.65A7.26,7.26,0,0,1,264.63,77Z" transform="translate(-57.02 -1.44)"/><path class="cls-3" d="M271,55.52l2.92-.35,1,8.52,6.34-.77-1-8.52,2.91-.36,2.43,20-2.91.35-1-8.35-6.35.77,1,8.35-2.91.35Z" transform="translate(-57.02 -1.44)"/><path class="cls-3" d="M296.53,64.94l-6.48-11.73,3.07-.37L297.55,61l2.33-9,2.94-.36-3.39,12.93.93,7.7-2.9.35Z" transform="translate(-57.02 -1.44)"/><path class="cls-3" d="M313.25,71.08a7.94,7.94,0,0,1-3.27-.17,4.6,4.6,0,0,1-2.13-1.3,6,6,0,0,1-1.25-2.16A12.73,12.73,0,0,1,306,64.7l-.76-6.27a13.28,13.28,0,0,1-.07-2.87,6.27,6.27,0,0,1,.68-2.45,4.6,4.6,0,0,1,1.76-1.8,7.76,7.76,0,0,1,3.14-1,6.87,6.87,0,0,1,3.15.22A4.68,4.68,0,0,1,316,52a6.59,6.59,0,0,1,1.24,2.28,15.33,15.33,0,0,1,.62,2.84l.71,5.85a14.32,14.32,0,0,1,.06,2.84,6.84,6.84,0,0,1-.67,2.47,4.67,4.67,0,0,1-1.69,1.85A7,7,0,0,1,313.25,71.08Zm-.38-3.16a3.53,3.53,0,0,0,2.37-1,3.78,3.78,0,0,0,.47-2.89l-.88-7.26A3.84,3.84,0,0,0,313.67,54a3.45,3.45,0,0,0-2.55-.49,4,4,0,0,0-2.45,1.07,3.55,3.55,0,0,0-.59,2.95L309,64.8a3.45,3.45,0,0,0,1.27,2.69A4,4,0,0,0,312.87,67.92Z" transform="translate(-57.02 -1.44)"/><path class="cls-3" d="M328.79,69.2a7.9,7.9,0,0,1-3.1-.14,4.38,4.38,0,0,1-2-1.18,5.68,5.68,0,0,1-1.17-2,12.69,12.69,0,0,1-.59-2.63l-1.66-13.7,2.91-.35,1.68,13.87A3.47,3.47,0,0,0,326,65.63a3.61,3.61,0,0,0,2.42.41,3.23,3.23,0,0,0,2.17-1,3.71,3.71,0,0,0,.41-2.75l-1.68-13.87,2.9-.36,1.64,13.54a13,13,0,0,1,.08,2.7,5.88,5.88,0,0,1-.61,2.3,4.24,4.24,0,0,1-1.6,1.69A7.46,7.46,0,0,1,328.79,69.2Z" transform="translate(-57.02 -1.44)"/><path class="cls-3" d="M338.23,67.7l-2.43-20,6.23-.75a5,5,0,0,1,3.06.39,3.85,3.85,0,0,1,1.7,1.91,10.79,10.79,0,0,1,.79,3.1,15.76,15.76,0,0,1,.12,2.33,5.58,5.58,0,0,1-.39,2,3.49,3.49,0,0,1-1.18,1.5L350,66.28l-3,.36-3.5-7.6-3.27.39,1,7.92Zm1.59-11.15,3.58-.43a1.49,1.49,0,0,0,1.08-.55,2.33,2.33,0,0,0,.39-1.18,7.71,7.71,0,0,0-.05-1.57,9.79,9.79,0,0,0-.31-1.56,2.71,2.71,0,0,0-.63-1.18,1.28,1.28,0,0,0-1.14-.35l-3.69.45Z" transform="translate(-57.02 -1.44)"/><path class="cls-3" d="M360.33,65l-2.05-17-4,.49-.38-3.07,10.94-1.32.38,3.06-4,.49,2.06,17Z" transform="translate(-57.02 -1.44)"/><path class="cls-3" d="M367.06,43.88l2.91-.36,1,8.53,6.34-.77-1-8.53,2.92-.35,2.43,20-2.92.36-1-8.35-6.34.77,1,8.34-2.92.36Z" transform="translate(-57.02 -1.44)"/><path class="cls-3" d="M384.7,59l2.63-.32-1.7-14L383,45l-.36-3,8.14-1,.36,3-2.61.32,1.7,14,2.61-.32.37,3-8.15,1Z" transform="translate(-57.02 -1.44)"/><path class="cls-3" d="M396.61,60.62l-2.42-20,6.23-.76a5.17,5.17,0,0,1,3.06.39,3.89,3.89,0,0,1,1.7,1.91,11.22,11.22,0,0,1,.79,3.1,15.89,15.89,0,0,1,.12,2.34,5.63,5.63,0,0,1-.39,2A3.4,3.4,0,0,1,404.52,51l3.82,8.16-3,.36L401.83,52l-3.27.4,1,7.91Zm1.6-11.14,3.57-.44a1.46,1.46,0,0,0,1.08-.55,2.21,2.21,0,0,0,.4-1.17,7.69,7.69,0,0,0-.05-1.57,9.37,9.37,0,0,0-.31-1.56,2.75,2.75,0,0,0-.63-1.19,1.28,1.28,0,0,0-1.14-.35l-3.69.45Z" transform="translate(-57.02 -1.44)"/><path class="cls-3" d="M416.05,58.62a9.43,9.43,0,0,1-3-.13,8.56,8.56,0,0,1-2.75-1l.64-3.07a10.5,10.5,0,0,0,2.13.87,6.43,6.43,0,0,0,2.56.19,2.17,2.17,0,0,0,1.3-.52,1.74,1.74,0,0,0,.5-1.06,6,6,0,0,0,0-1.46,3.83,3.83,0,0,0-.26-1,2,2,0,0,0-.67-.8,4.46,4.46,0,0,0-1.39-.6l-2.59-.7a4.42,4.42,0,0,1-2-1.09,4.9,4.9,0,0,1-1.14-1.81,9.78,9.78,0,0,1-.55-2.34,6.57,6.57,0,0,1,.28-3.18,4.38,4.38,0,0,1,1.58-2,5.42,5.42,0,0,1,2.49-.92,9.16,9.16,0,0,1,2.68.06,6.93,6.93,0,0,1,2.34.92l-.48,2.93a9,9,0,0,0-1.85-.67,5.87,5.87,0,0,0-2.05-.1,3,3,0,0,0-1.71.68,2,2,0,0,0-.44,1.83,2.8,2.8,0,0,0,.58,1.55,3.38,3.38,0,0,0,1.61.83l2.57.72a4.35,4.35,0,0,1,2.43,1.68A7.73,7.73,0,0,1,420,52a9.23,9.23,0,0,1-.11,3.13,4.85,4.85,0,0,1-1.26,2.38A4.26,4.26,0,0,1,416.05,58.62Z" transform="translate(-57.02 -1.44)"/><path class="cls-3" d="M426.21,57l-2.06-17-4,.49-.37-3.07,10.94-1.33.37,3.07-4,.49,2.05,17Z" transform="translate(-57.02 -1.44)"/><path class="cls-3" d="M438,35.28l8.74-1.06.37,3.08-5.83.71.66,5.46,5.43-.66.35,2.89-5.43.66,1,8.6-2.9.35Z" transform="translate(-57.02 -1.44)"/><path class="cls-3" d="M458,53.53a8,8,0,0,1-3.27-.16,4.69,4.69,0,0,1-2.13-1.3,6.23,6.23,0,0,1-1.25-2.16,13.65,13.65,0,0,1-.62-2.75L450,40.89a14.06,14.06,0,0,1-.07-2.88,6.51,6.51,0,0,1,.69-2.45,4.64,4.64,0,0,1,1.75-1.8,8.09,8.09,0,0,1,3.15-.95,7,7,0,0,1,3.15.22,4.65,4.65,0,0,1,2.08,1.41A6.77,6.77,0,0,1,462,36.72a14.56,14.56,0,0,1,.62,2.84l.71,5.85a14.36,14.36,0,0,1,.07,2.84,6.79,6.79,0,0,1-.67,2.47A4.74,4.74,0,0,1,461,52.57,7.07,7.07,0,0,1,458,53.53Zm-.39-3.16a3.55,3.55,0,0,0,2.37-1,3.78,3.78,0,0,0,.47-2.9l-.88-7.26a3.88,3.88,0,0,0-1.15-2.71,3.45,3.45,0,0,0-2.55-.49,3.91,3.91,0,0,0-2.46,1.08,3.52,3.52,0,0,0-.59,2.94l.88,7.26A3.47,3.47,0,0,0,455,49.94,4,4,0,0,0,457.65,50.37Z" transform="translate(-57.02 -1.44)"/><path class="cls-3" d="M467.61,52l-2.43-20,6.23-.75a5,5,0,0,1,3.06.39,3.86,3.86,0,0,1,1.71,1.91,11.14,11.14,0,0,1,.78,3.1,15.76,15.76,0,0,1,.12,2.33,5.58,5.58,0,0,1-.39,2,3.49,3.49,0,0,1-1.18,1.5l3.82,8.16-3,.36-3.5-7.6-3.27.39,1,7.92Zm1.59-11.15,3.58-.43a1.49,1.49,0,0,0,1.08-.55,2.33,2.33,0,0,0,.39-1.18,7.71,7.71,0,0,0-.05-1.57,9.79,9.79,0,0,0-.31-1.56,2.77,2.77,0,0,0-.63-1.18,1.28,1.28,0,0,0-1.14-.35l-3.69.45Z" transform="translate(-57.02 -1.44)"/><path class="cls-3" d="M487.18,49.64l-2.43-20,3.2-.39,5.26,9.27,2.9-10.26,3.26-.39,2.43,20-2.72.33-1.8-14.81-2.52,9.43-1.95.23-4.66-8.2,1.75,14.47Z" transform="translate(-57.02 -1.44)"/><path class="cls-3" d="M511.49,47.06a7.9,7.9,0,0,1-3.1-.14,4.31,4.31,0,0,1-2-1.19,5.72,5.72,0,0,1-1.18-2,13.38,13.38,0,0,1-.58-2.63L503,27.39l2.91-.35,1.68,13.87a3.39,3.39,0,0,0,1.15,2.57,3.49,3.49,0,0,0,2.42.41,3.14,3.14,0,0,0,2.17-1,3.72,3.72,0,0,0,.41-2.74L512,26.3l2.9-.36,1.64,13.53a13.87,13.87,0,0,1,.08,2.71,5.88,5.88,0,0,1-.61,2.3,4.2,4.2,0,0,1-1.61,1.69A7.35,7.35,0,0,1,511.49,47.06Z" transform="translate(-57.02 -1.44)"/><path class="cls-3" d="M525.84,45.32a9.7,9.7,0,0,1-3-.13,8.49,8.49,0,0,1-2.75-1l.64-3.06a10.5,10.5,0,0,0,2.13.86,6.24,6.24,0,0,0,2.56.19,2.17,2.17,0,0,0,1.3-.51,1.76,1.76,0,0,0,.5-1.06,6.59,6.59,0,0,0,0-1.47,3.76,3.76,0,0,0-.27-1,1.92,1.92,0,0,0-.66-.8,4,4,0,0,0-1.39-.6L522.27,36a4.5,4.5,0,0,1-2-1.08,4.76,4.76,0,0,1-1.15-1.82,10.28,10.28,0,0,1-.54-2.34,6.4,6.4,0,0,1,.28-3.17,4.4,4.4,0,0,1,1.58-2.05,5.41,5.41,0,0,1,2.49-.91,8.53,8.53,0,0,1,2.68.06,6.71,6.71,0,0,1,2.34.91l-.48,2.94a8.75,8.75,0,0,0-1.86-.67,5.61,5.61,0,0,0-2-.11,3,3,0,0,0-1.7.68,2,2,0,0,0-.44,1.84,2.7,2.7,0,0,0,.58,1.54,3.34,3.34,0,0,0,1.6.84l2.58.72a4.42,4.42,0,0,1,2.43,1.67,7.74,7.74,0,0,1,1.18,3.61,9,9,0,0,1-.12,3.13,4.69,4.69,0,0,1-1.26,2.38A4.32,4.32,0,0,1,525.84,45.32Z" transform="translate(-57.02 -1.44)"/><path class="cls-3" d="M532.78,41.06l2.63-.32-1.69-14-2.64.32-.36-3,8.14-1,.37,3-2.62.32,1.7,14,2.61-.32.37,3-8.14,1Z" transform="translate(-57.02 -1.44)"/><path class="cls-3" d="M550.51,42.33a8.09,8.09,0,0,1-3.19-.15,4.19,4.19,0,0,1-2-1.23,5.82,5.82,0,0,1-1.14-2.1,14.89,14.89,0,0,1-.56-2.71l-.82-6.69a17.48,17.48,0,0,1-.11-2.85,6.08,6.08,0,0,1,.59-2.36,4.18,4.18,0,0,1,1.65-1.72A7.85,7.85,0,0,1,548,21.6a7.31,7.31,0,0,1,3,.16,3.89,3.89,0,0,1,1.9,1.27A6,6,0,0,1,554,25.17a17.4,17.4,0,0,1,.55,2.77l0,.25-2.79.8-.13-1a6.86,6.86,0,0,0-.52-2.15,1.73,1.73,0,0,0-1-1,4.17,4.17,0,0,0-1.76-.1,3.55,3.55,0,0,0-2.3,1,3.78,3.78,0,0,0-.44,2.86l.92,7.58a5,5,0,0,0,.6,2,1.86,1.86,0,0,0,1.16.87,5.37,5.37,0,0,0,1.82,0,4.46,4.46,0,0,0,1.69-.47,1.57,1.57,0,0,0,.74-1.11,6.9,6.9,0,0,0,0-2.19l-.08-.64,2.85-.35,0,.37a17.64,17.64,0,0,1,.13,2.75,5.78,5.78,0,0,1-.51,2.27,3.82,3.82,0,0,1-1.54,1.66A7.42,7.42,0,0,1,550.51,42.33Z" transform="translate(-57.02 -1.44)"/></svg>