<svg id="Layer_1" data-name="Layer 1" xmlns="http://www.w3.org/2000/svg" xmlns:xlink="http://www.w3.org/1999/xlink" viewBox="0 0 1600 600"><defs><style>.cls-1{fill:none;}.cls-2{fill:#e0e0e0;}.cls-3{clip-path:url(#clip-path);}.cls-4{clip-path:url(#clip-path-2);}.cls-5{fill:#010101;}.cls-6{clip-path:url(#clip-path-95);}</style><clipPath id="clip-path"><rect class="cls-1" y="239.95" width="248.15" height="360.05"/></clipPath><clipPath id="clip-path-2"><rect class="cls-1" x="-50.71" y="269.95" width="281.57" height="663.69"/></clipPath><clipPath id="clip-path-95"><rect class="cls-1" x="800" y="-48.62" width="800" height="648.62"/></clipPath></defs><title>footer_background_01</title><g id="Layer_2" data-name="Layer 2"><rect class="cls-2" width="1600" height="600"/></g><g id="Layer_1-2" data-name="Layer 1"><g class="cls-3"><g class="cls-4"><path class="cls-5" d="M45.89,719v-.82l-2.67-2.83-2.66-2.83v-4.64L38,705.26c-1.38-1.43-3.55-3.58-4.8-4.78L31,698.29l-.18-1.73-.18-1.73h.47c.26,0,.6-.55.77-1.23l.29-1.23,2,.52a28.65,28.65,0,0,1,3.7,1.25c.94.4,1.84.6,2,.44s.09-.61-.13-1a1.2,1.2,0,0,0-1.09-.6,7.67,7.67,0,0,1-1.44,0c-.41,0-.74-.31-.74-.6v-.53l3-.74,2.94-.74.83.35.82.34.41-1.72.4-1.73-1.31-1.51a7.46,7.46,0,0,0-2.4-1.88L40,683.87V682l1,.11a7.67,7.67,0,0,0,1.55,0l.52-.07-1.85-2a9.24,9.24,0,0,1-1.85-2.56v-.52l1-.1a16.28,16.28,0,0,1,2.4,0l1.37.13L44,675.81l-.18-1.13-1.48-1.45-1.48-1.45,1.33-.41c.73-.22,1.33-.64,1.33-.92A8.66,8.66,0,0,0,41.31,668a8.76,8.76,0,0,0-2.93-2h-.72l-1.51-2.14-1.51-2.14v-2L32.72,659a32.56,32.56,0,0,1-3.5-1.68,6.62,6.62,0,0,0-2.5-.9,12.73,12.73,0,0,1-3.35-1L21,654.29,20,651.81l-.92-2.47H16.87v-.67a5.2,5.2,0,0,1,1.61-2.16l1.6-1.49,1.14.72,1.14.73.27-.8.27-.8H25l.81,1.06a7.94,7.94,0,0,0,2.56,1.85l1.74.79,1.22-.73c.67-.4,1.29-.76,1.38-.8s0-.54-.21-1.12l-.37-1H29.4l-3-1.64c-1.65-.9-3-1.85-3-2.12a7.37,7.37,0,0,0-2.52-2,30.27,30.27,0,0,1-4.89-4l-2.37-2.46-.65-2-.64-2.05L11,628.46l-1.3-.07-.49.94-.48.94-.06-2,0-2h.55a.54.54,0,0,0,.55-.52v-.52l-2.09-.89a9.56,9.56,0,0,1-3-2l-1-1.14-.58.39-.58.39L2,621.11l-.5-.87.71-.51.71-.51-1.48-1.43L0,616.36,0,613.8c0-1.41.12-2.85.18-3.2L.31,610l1,1.92,1,1.93.24-1.24.24-1.24,1.1,1.56L5,614.45v-3.64l-1.19-1.63L2.6,607.56v-2.94l1.16-.4a11,11,0,0,0,3-2.22l1.81-1.83v-3.82L9.9,596a74,74,0,0,1,8-.82l6.67-.42v-.46a23.47,23.47,0,0,0-1.18-3.36L22.2,588l-2-1.83a31.77,31.77,0,0,0-4-3.06c-1.11-.68-2.94-1.72-4.09-2.3a10.4,10.4,0,0,1-3-2.22l-.89-1.17.74-.27.74-.27v-1.6l-1.38-.8L7,573.67l-5.59.26-5.58.26,0,2.31,0,2.32-.75,1-.75,1,.94,1a3.53,3.53,0,0,1,1,1.57,1,1,0,0,1-.68.78l-.67.24.65,1.33.66,1.32,1.86.4,1.86.4.61-.4L1,587l-.24.57c-.14.31-.58,1.29-1,2.17l-.76,1.6-2.32,1.21-2.33,1.22L-6,595.07l-.36,1.25.67.73.68.73.49-.86.5-.86,1.11.38,1.11.39.74,1.73a9.82,9.82,0,0,1,.74,3.2v1.47H-2l-.28,1.58-.28,1.58.51-.34.51-.34.08.84c0,.46.17,2,.28,3.38l.2,2.54-.74.48-.71.48.74.79a2.67,2.67,0,0,1,.73,1.35v.55l-.59-.4-.6-.39v2H-.79L-1.08,619l-.29,1.62,1.07.62,1.07.61L1.13,623l.37,1.24,1,.29,1,.29-1,.07-1,.07v1c0,.53-.19,1-.43,1s-1-.8-1.78-1.76l-1.36-1.76.16,1,.15,1-.7-.15-.7-.14-.39,1.33a21.83,21.83,0,0,0-.57,3l-.17,1.7.56,1.13.55,1.13-.77-.18-.77-.17.14,4.61.14,4.62-.68.45-.68.46.4-1.23.4-1.23-.8,1.11-.8,1.11-.43-.47-.44-.47.2,2.24.2,2.24.59-.07c.32,0,.89-.71,1.26-1.49l.67-1.42.3,2.45.29,2.46-.79.69-.8.69.69.75.69.74H-5.64v6.33l-.63.42-.63.42.16,5.86c.09,3.22.09,10.54,0,16.26L-6.93,691l.43.75.43.74-.06,16-.07,16-.34,1.13-.33,1.13.56,1.53.57,1.53.15-3.52c.08-1.94.16-6.29.19-9.66l0-6.15.66-.9a7.61,7.61,0,0,0,1-1.86l.3-1L-4,705.5l-.56-1.16.7-.92.71-.92-.68-.88-.67-.88.34-1,.35-1-.66-3.93L-5.12,691l.35-.62.36-.63,1.45,1c.79.56,1.45,1.28,1.45,1.59v.57H-3.26l.7,1.76A26.21,26.21,0,0,0-.8,698.11l1.07,1.7v3.81l.84,2.18L2,708l-.78,4-.78,4,1,.37a8,8,0,0,1,2,1.34l1,1,.31-.34.32-.34-.53-2.54L4,713l.62-4.1a64,64,0,0,0,.6-8.11l0-4h.41a1.39,1.39,0,0,1,.82.44,2.63,2.63,0,0,0,1.28.59,21.26,21.26,0,0,1,3.69,1.53c1.55.77,3.78,1.94,4.95,2.61s2.26,1.07,2.42.9,2.36.42,4.9,1.31a57.31,57.31,0,0,1,5.87,2.34A20,20,0,0,1,33,709.62L35.22,712V714l1.17.4a23.31,23.31,0,0,1,4.28,2.92l3.11,2.53h2.1V719Z"/></g><g class="cls-4"><path class="cls-5" d="M40.77,600.92a.91.91,0,1,1-.91-1,.95.95,0,0,1,.91,1"/></g><g class="cls-4"><path class="cls-5" d="M20.8,589.15a.91.91,0,1,1-.91-1,.95.95,0,0,1,.91,1"/></g><g class="cls-4"><path class="cls-5" d="M80.55,585.12a.91.91,0,1,1-.9-1,.95.95,0,0,1,.9,1"/></g><g class="cls-4"><path class="cls-5" d="M76.92,582.12V584l-2.72-1.13c-1.5-.62-2.72-1.48-2.72-1.9s1.22-.77,2.72-.77h2.72Z"/></g><g class="cls-4"><path class="cls-5" d="M70.57,587.53a16.56,16.56,0,0,0-5.9,2.92l-2.27,2,.14-4.65.15-4.66.81,2.11.81,2.11,5-.38,4.95-.37Z"/></g><g class="cls-4"><polygon class="cls-5" points="73.75 593.29 71.48 594.27 69.21 593.29 66.94 592.29 71.48 592.29 76.02 592.29 73.75 593.29"/></g><g class="cls-4"><polygon class="cls-5" points="56.82 581.03 56.96 584.79 55.86 583.6 54.77 582.42 55.72 579.85 56.67 577.27 56.82 581.03"/></g><g class="cls-4"><path class="cls-5" d="M53.33,593a.91.91,0,1,1-.91-1,.95.95,0,0,1,.91,1"/></g><g class="cls-4"><path class="cls-5" d="M51.48,601.3a13,13,0,0,1-1.78,4.42l-1.76,2.94,0-4.41,0-4.42H49.7a1.63,1.63,0,0,1,1.78,1.47"/></g><g class="cls-4"><path class="cls-5" d="M49.7,587.08a.91.91,0,1,1-.91-1,.95.95,0,0,1,.91,1"/></g><g class="cls-4"><path class="cls-5" d="M49.7,592.85c0,.48-.82,1.41-1.82,2.08l-1.81,1.22V592h1.81c1,0,1.82.38,1.82.86"/></g><g class="cls-4"><path class="cls-5" d="M40.62,611.6v2H35.38l-2.51,3.86-2.5,3.86-4.15-3.14L22.07,615l-1.35,2.35-1.34,2.35.63,12,.63,12,2.22,1.48,2.22,1.48-.94,1-.93,1-4-1.13-4-1.13v-8.88l-2.72-2.44-2.73-2.44v-7.13l-1.81-1.21-1.81-1.22V604.36l6.26-3.64,6.26-3.64L22,600.33l3.32,3.25,5.39-.66c3-.36,6-.24,6.84.27l1.45.92L36.76,607l-2.21,2.88,1.67-.34a9.81,9.81,0,0,1,3-.11,2.11,2.11,0,0,1,1.37,2.18"/></g><g class="cls-4"><path class="cls-5" d="M35.18,596.89a.91.91,0,1,1-.91-1,.95.95,0,0,1,.91,1"/></g><g class="cls-4"><path class="cls-5" d="M137.48,500.18l.21,3.65-4.75-1.29c-2.61-.71-7.17-1.81-10.14-2.45l-5.38-1.17,1.22-7.07a47.33,47.33,0,0,1,1.7-7.61c.27-.29,2.85.81,5.74,2.44s6.22,3,7.4,3l2.14,0,.83,3.43a49.13,49.13,0,0,1,1,7.07"/></g><g class="cls-4"><polygon class="cls-5" points="93.53 412.5 92.32 413.81 91.1 412.5 89.9 411.19 92.32 411.19 94.74 411.19 93.53 412.5"/></g><g class="cls-4"><path class="cls-5" d="M91.41,399.42l-1.12,2-3.07,0-3.07,0,2.73-1.9a10.71,10.71,0,0,1,4.19-1.93l1.47,0Z"/></g><g class="cls-4"><path class="cls-5" d="M85.06,427.87a.91.91,0,1,1-.91-1,.95.95,0,0,1,.91,1"/></g><g class="cls-4"><path class="cls-5" d="M81.42,400.41a.9.9,0,1,1-.9-1,.94.94,0,0,1,.9,1"/></g><g class="cls-4"><polygon class="cls-5" points="81.42 503.62 81.42 505.35 76.89 505.35 72.35 505.35 72.35 502.69 72.35 500.02 76.89 500.96 81.42 501.89 81.42 503.62"/></g><g class="cls-4"><path class="cls-5" d="M54.21,475a.91.91,0,1,1-.91-1,.95.95,0,0,1,.91,1"/></g><g class="cls-4"><polygon class="cls-5" points="34.24 440.62 34.24 443.23 33.03 441.93 31.82 440.62 33.03 439.31 34.24 438 34.24 440.62"/></g><g class="cls-4"><path class="cls-5" d="M10.64,443.57a.91.91,0,1,1-.91-1,.94.94,0,0,1,.91,1"/></g><g class="cls-4"><polygon class="cls-5" points="7.01 434.74 7.01 438.66 5.2 438.66 3.38 438.66 3.38 434.74 3.38 430.81 5.2 430.81 7.01 430.81 7.01 434.74"/></g><g class="cls-4"><path class="cls-5" d="M86,387.7c-.06-.33-.85-2.59-1.76-5l-1.64-4.42,1.07-3,1.07-3-5.21,1.25c-2.87.69-7.47,1.7-10.21,2.26l-5,1v9.36l4.08-.23,4.09-.22-3.18-.9-3.18-.9v-3.64h5.94L76,384.73l3.87,4.52L79.44,395,79,400.79l1.71-2.92a18,18,0,0,0,1.74-7.46l0-4.53,1.81,1.21c1,.67,1.77.94,1.71.61"/></g><g class="cls-4"><path class="cls-5" d="M68,389.05a.91.91,0,1,0-.9,1,.95.95,0,0,0,.9-1"/></g><g class="cls-4"><path class="cls-5" d="M68,551.88a.91.91,0,1,0-.9,1,.95.95,0,0,0,.9-1"/></g><g class="cls-4"><path class="cls-5" d="M66.18,571.5a.91.91,0,1,0-.9,1,.95.95,0,0,0,.9-1"/></g><g class="cls-4"><path class="cls-5" d="M64.36,589.15a.91.91,0,1,0-.9,1,.95.95,0,0,0,.9-1"/></g><g class="cls-4"><path class="cls-5" d="M60.73,368.46v-2l-5,0-5,0,2.73,1.9a10.93,10.93,0,0,0,5,1.93l2.27,0v-2Z"/></g><g class="cls-4"><path class="cls-5" d="M59.63,381.05l1.1-3.1-2.16.78a5.4,5.4,0,0,0-2.88,3.1L55,384.16h1.77c1,0,2.28-1.41,2.89-3.11"/></g><g class="cls-4"><path class="cls-5" d="M57.1,340a.91.91,0,1,0-.91,1,.95.95,0,0,0,.91-1"/></g><g class="cls-4"><path class="cls-5" d="M53.47,371.4a.91.91,0,1,0-.91,1,.95.95,0,0,0,.91-1"/></g><g class="cls-4"><path class="cls-5" d="M53.47,383.17a.91.91,0,1,0-.91,1,.95.95,0,0,0,.91-1"/></g><g class="cls-4"><polygon class="cls-5" points="28.06 577.23 28.06 574.57 25.34 575.69 22.61 576.82 22.61 579.49 22.61 582.16 25.34 581.03 28.06 579.9 28.06 577.23"/></g><g class="cls-4"><path class="cls-5" d="M2.65,361.43v-3.11l-2.16.78a5.33,5.33,0,0,0-2.87,3.1l-.72,2.33H2.65Z"/></g><g class="cls-4"><path class="cls-5" d="M44.15,588.87A1.83,1.83,0,0,0,42.33,587H40.52v6.12l1.81-1.21a4.29,4.29,0,0,0,1.82-3.07"/></g><g class="cls-4"><polygon class="cls-5" points="19.94 570.68 21.15 569.37 18.74 569.37 16.31 569.37 17.52 570.68 18.74 571.99 19.94 570.68"/></g><g class="cls-4"><path class="cls-5" d="M228.44,600.5a.91.91,0,1,0-.91,1,.95.95,0,0,0,.91-1"/></g><g class="cls-4"><path class="cls-5" d="M212.11,500.45a.91.91,0,1,0-.91,1,.95.95,0,0,0,.91-1"/></g><g class="cls-4"><path class="cls-5" d="M206.66,500.57c0-.48-.82-1.41-1.81-2.08L203,497.28v4.15h1.81c1,0,1.81-.39,1.81-.86"/></g><g class="cls-4"><polygon class="cls-5" points="202.59 516.78 205.84 516.15 205.2 512.6 204.54 509.06 202.43 509.91 200.31 510.75 200.77 512.96 201.22 515.16 199.4 515.16 197.59 515.16 197.59 518.11 197.59 521.05 199.51 521.05 201.43 521.05 200.39 519.23 199.35 517.41 202.59 516.78"/></g><g class="cls-4"><path class="cls-5" d="M199.4,506.34a.91.91,0,1,0-.91,1,.95.95,0,0,0,.91-1"/></g><g class="cls-4"><path class="cls-5" d="M190.33,521.49c0-.84-1.37-3.64-3-6.22l-3-4.69-1.37,3.76a27.39,27.39,0,0,0-1.47,6.72l-.1,2.94,1.76-2.94,1.76-2.94,0,2.45,0,2.45h5.45v-1.53Z"/></g><g class="cls-4"><path class="cls-5" d="M183.07,348.3v-2.07l-1.82,1.21c-1,.67-1.81,1.6-1.81,2.08s.82.86,1.81.86h1.82Z"/></g><g class="cls-4"><polygon class="cls-5" points="183.07 356.27 183.07 353.65 181.86 354.95 180.65 356.27 181.86 357.57 183.07 358.88 183.07 356.27"/></g><g class="cls-4"><path class="cls-5" d="M176.72,345v-10.3h-2.94l1.11-1.94,1.11-1.94-3.27-3.63a21.72,21.72,0,0,0-6.72-5l-3.45-1.35-3.36,3.9-3.35,3.9v6.05H150.4V339L153,338l2.6-1.08v3.32a40.68,40.68,0,0,0,.68,6.78,13.33,13.33,0,0,0,2.5,5.4l1.8,1.95,8.07.48,8.07.48V345Z"/></g><g class="cls-4"><polygon class="cls-5" points="173.99 591.67 173.99 589.71 170.36 589.71 166.73 589.71 166.73 591.67 166.73 593.64 170.36 593.64 173.99 593.64 173.99 591.67"/></g><g class="cls-4"><path class="cls-5" d="M166.73,603.59c0-2.11-.62-4.25-1.38-4.76l-1.38-.92-2.75,2.27-2.75,2.28,1.93,6.29,1.93,6.29,2.2-3.81a18.24,18.24,0,0,0,2.2-7.64"/></g><g class="cls-4"><path class="cls-5" d="M161.54,440.21l2.3-.83-2.3-1.54-2.3-1.54-1.08,1.18-1.09,1.18,1.1,1.18c.58.66,2.11.82,3.37.37"/></g><g class="cls-4"><path class="cls-5" d="M154,431.79a.91.91,0,1,0-.91,1,.95.95,0,0,0,.91-1"/></g><g class="cls-4"><polygon class="cls-5" points="154.03 546.55 154.03 543.94 152.82 545.25 151.61 546.55 152.82 547.86 154.03 549.17 154.03 546.55"/></g><g class="cls-4"><polygon class="cls-5" points="150.4 287.61 150.4 284.99 149.19 286.3 147.98 287.61 149.19 288.91 150.4 290.22 150.4 287.61"/></g><g class="cls-4"><path class="cls-5" d="M149.36,440.84l1-1.74-2.7-2.43-2.7-2.42v8.32h1.71a3.52,3.52,0,0,0,2.7-1.73"/></g><g class="cls-4"><path class="cls-5" d="M150.4,506.34a.91.91,0,1,0-.91,1,.95.95,0,0,0,.91-1"/></g><g class="cls-4"><polygon class="cls-5" points="150.4 599.52 150.4 597.56 146.77 597.56 143.14 597.56 143.14 599.52 143.14 601.48 146.77 601.48 150.4 601.48 150.4 599.52"/></g><g class="cls-4"><polygon class="cls-5" points="148.44 496.36 148.29 492.61 147.34 495.18 146.39 497.76 147.48 498.94 148.58 500.13 148.44 496.36"/></g><g class="cls-4"><path class="cls-5" d="M145,345.48a.91.91,0,1,0-.91,1,.95.95,0,0,0,.91-1"/></g><g class="cls-4"><path class="cls-5" d="M139.51,602.21c0-.46-1.27-1.37-2.83-2L133.86,599l-3.77,1.82-3.77,1.81,6.59.2c3.63.12,6.6-.17,6.6-.64"/></g><g class="cls-4"><polygon class="cls-5" points="128.01 512.55 129.22 511.24 126.8 511.24 124.38 511.24 125.59 512.55 126.8 513.86 128.01 512.55"/></g><g class="cls-4"><path class="cls-5" d="M82.6,520.07l2.72-2.94H82.83a6.78,6.78,0,0,0-4.21,1.77,13.81,13.81,0,0,1-5.35,2.71l-3.63.94,5.12.23,5.12.23Z"/></g><g class="cls-4"><path class="cls-5" d="M76,327.82a.91.91,0,1,0-.91,1,.95.95,0,0,0,.91-1"/></g><g class="cls-4"><polygon class="cls-5" points="72.35 513.2 72.35 510.59 71.14 511.9 69.93 513.2 71.14 514.51 72.35 515.82 72.35 513.2"/></g><g class="cls-4"><polygon class="cls-5" points="68.58 325.69 68.44 321.94 67.48 324.51 66.53 327.08 67.62 328.27 68.72 329.46 68.58 325.69"/></g><g class="cls-4"><path class="cls-5" d="M66.91,548.4v-2.07l-1.82,1.21c-1,.67-1.82,1.6-1.82,2.08s.82.86,1.82.86h1.82Z"/></g><g class="cls-4"><path class="cls-5" d="M52.39,522a.91.91,0,1,0-.91,1,.95.95,0,0,0,.91-1"/></g><g class="cls-4"><path class="cls-5" d="M52.39,571.07a.91.91,0,1,0-.91,1,.95.95,0,0,0,.91-1"/></g><g class="cls-4"><path class="cls-5" d="M42.61,471.76V461.7l-1.34,3.68a39.06,39.06,0,0,0-1.47,10.06l-.13,6.38H42.6V471.76Z"/></g><g class="cls-4"><path class="cls-5" d="M37.87,553.42a.91.91,0,1,0-.91,1,.95.95,0,0,0,.91-1"/></g><g class="cls-4"><path class="cls-5" d="M37.87,575.92v-1.78l-3,1.26-3,1.26,1.06-3,1-3-12.07.18-12.07.18-3.25-3.5-3.25-3.51-2.2,1.39-2.2,1.39,3.47-4.29,3.48-4.29,3.78,1,3.78,1-2.27-1.13L8.84,558v-5.55h2.61a4.69,4.69,0,0,1,3.74,2,3.86,3.86,0,0,0,2.83,2h1.71v-7.42L17,547.81l-2.72-1.13v-6.14l-3.63,2.1L7,544.74v-2a1.89,1.89,0,0,0-1.69-2H3.65l-.76,3.43-.76,3.43-2-4.9-2-4.91-.39,6.87c-.21,3.77-.58,7.75-.81,8.83a17.92,17.92,0,0,1-.87,2.94c-.25.54-.59,10.25-.77,21.58L-5,598.54l2.75-7.07L.51,584.4l7.34.48,7.34.48,2-1.75,2-1.76,7.06-.53c3.88-.29,8.08-1.22,9.33-2.07a5,5,0,0,0,2.26-3.33"/></g><g class="cls-4"><polygon class="cls-5" points="6.41 555.71 5.2 557.02 3.98 555.71 2.77 554.4 5.2 554.4 7.62 554.4 6.41 555.71"/></g><g class="cls-4"><polygon class="cls-5" points="30 553.74 31.21 552.44 28.79 552.44 26.37 552.44 27.58 553.74 28.79 555.05 30 553.74"/></g><g class="cls-4"><polygon class="cls-5" points="28.79 542.63 28.79 540.01 27.58 541.32 26.37 542.63 27.58 543.94 28.79 545.25 28.79 542.63"/></g><g class="cls-4"><polygon class="cls-5" points="25.16 285.64 25.16 283.03 23.95 284.34 22.74 285.64 23.95 286.95 25.16 288.26 25.16 285.64"/></g><g class="cls-4"><path class="cls-5" d="M23.35,355.28a.91.91,0,1,0-.9,1,.94.94,0,0,0,.9-1"/></g><g class="cls-4"><polygon class="cls-5" points="22.85 520.27 23.95 519.09 20.47 519.25 16.99 519.4 19.38 520.43 21.76 521.46 22.85 520.27"/></g><g class="cls-4"><polygon class="cls-5" points="19.11 394.85 20.32 393.54 17.9 393.54 15.48 393.54 16.69 394.85 17.9 396.15 19.11 394.85"/></g><g class="cls-4"><polygon class="cls-5" points="10.5 311.96 10.36 308.2 9.4 310.78 8.45 313.35 9.54 314.54 10.64 315.72 10.5 311.96"/></g><g class="cls-4"><path class="cls-5" d="M10.64,418.06a.91.91,0,1,0-.91,1,.95.95,0,0,0,.91-1"/></g><g class="cls-4"><path class="cls-5" d="M10.64,529.88a.91.91,0,1,0-.91,1,.95.95,0,0,0,.91-1"/></g><g class="cls-4"><polygon class="cls-5" points="10.04 600.83 11.24 599.52 8.83 599.52 6.41 599.52 7.62 600.83 8.83 602.14 10.04 600.83"/></g><g class="cls-4"><polygon class="cls-5" points="8.68 325.69 8.54 321.94 7.59 324.51 6.63 327.08 7.73 328.27 8.83 329.46 8.68 325.69"/></g><g class="cls-4"><path class="cls-5" d="M8.83,349.4a.91.91,0,1,0-.91,1,.95.95,0,0,0,.91-1"/></g><g class="cls-4"><polygon class="cls-5" points="5.05 331.58 4.91 327.82 3.96 330.4 3.01 332.97 4.1 334.15 5.2 335.34 5.05 331.58"/></g><g class="cls-4"><polygon class="cls-5" points="5.15 528.9 5.17 522.03 1.1 519.99 -2.97 517.95 -2.32 526.62 -1.66 535.29 -0.05 532.58 1.57 529.88 3.36 532.82 5.14 535.76 5.15 528.9"/></g><g class="cls-4"><path class="cls-5" d="M3.38,292.68a6.51,6.51,0,0,0-1.21-3.77,4.32,4.32,0,0,0-2.72-1.3H-2.06L-2,292a17.11,17.11,0,0,0,1.56,7l1.54,2.62,1.16-3.26a21.58,21.58,0,0,0,1.15-5.73"/></g><g class="cls-4"><path class="cls-5" d="M3.38,304.28a1,1,0,0,0-.91-1,1,1,0,0,0,0,2,1,1,0,0,0,.91-1"/></g><g class="cls-4"><path class="cls-5" d="M3.38,321.42a5.28,5.28,0,0,0-1.21-3.08A5.63,5.63,0,0,0-1.46,317H-3.88v4.58c0,2.52.51,5.13,1.13,5.79l1.13,1.21,2.5-2.71c1.37-1.48,2.5-3.5,2.5-4.48"/></g><g class="cls-4"><polygon class="cls-5" points="1.57 320.96 1.57 323.57 0.36 322.26 -0.85 320.96 0.36 319.64 1.57 318.34 1.57 320.96"/></g><g class="cls-4"><path class="cls-5" d="M3.38,512.22a1,1,0,0,0-.91-1,1,1,0,0,0,0,2,1,1,0,0,0,.91-1"/></g><g class="cls-4"><path class="cls-5" d="M1.57,352.34a1.9,1.9,0,0,0-1.82-2,1.89,1.89,0,0,0-1.81,2,1.9,1.9,0,0,0,1.81,2,1.9,1.9,0,0,0,1.82-2"/></g><g class="cls-4"><path class="cls-5" d="M.66,415.12l1.12-2H-3.88v2a1.85,1.85,0,0,0,1.71,2,3.86,3.86,0,0,0,2.83-2"/></g><g class="cls-4"><polygon class="cls-5" points="0.96 471.35 2.17 470.05 -0.25 470.05 -2.67 470.05 -1.46 471.35 -0.25 472.66 0.96 471.35"/></g></g><g class="cls-6"><path class="cls-5" d="M2022.54-7.17a39,39,0,0,1-16.76-3.67,27.79,27.79,0,0,0-9.5-3.08c-1.2-.14-2.44-.27-3.38.58-1.81,1.64-3.86,1.27-6,1-8.82-1.2-17.67-2.13-26.28-4.58-2.74-.78-5.69-.84-8.55-1.25-3.09-.44-6.28-.48-9-2.52a3.29,3.29,0,0,0-3-.29,15.7,15.7,0,0,0,4,2.73,15.78,15.78,0,0,1-4-2.73,1.71,1.71,0,0,0-.5-.3c-3.07-1.91-6.53-1.65-9.92-1.79a5.53,5.53,0,0,0-2.49-1.63,3.2,3.2,0,0,0-3.35-.77.94.94,0,0,0-.46-.27c-2.35-1.56-5-1-7.49-.8a36.22,36.22,0,0,1-10.74-.42c-3.44-.7-7.09-1.3-10.68-.34l-5-.34c-1.4-.94-2.85-1.35-4.39-.32a8.29,8.29,0,0,1-4-.13c-.31-.22-.6-.57-1-.65-4.52-1-9.19-1.16-13.61-2.65-.17-.06-.45.2-.69.31a2.11,2.11,0,0,0-.65.19c-1.05-.78-2.13-1.1-3.26-.14l-2.39.46-12.76-1.71a3.66,3.66,0,0,0-2.28.37l-1.08-.15a1.53,1.53,0,0,0-2.15-.09c-1.51.56-3.1.15-4.63.33a4,4,0,0,0-4.45-.63,6.93,6.93,0,0,1-2.58-.69,25.29,25.29,0,0,0-10.43-2.23,26.2,26.2,0,0,0-11.59.05c-5.7,1.26-11.17.5-16.63-.79a102,102,0,0,0-12.39-1.83,14,14,0,0,0-4.65.49c-3,.71-5.94,2-9.15,2.06-1.83,0-3,1.36-4.19,2.64h0l-1.32.85c-4.57-1.29-8.24,1.21-11.91,3.13-1.91,1-4.22,2.12-4.77,4.72-1.27,1-3,1.09-4.19,2.25l-2.16,1.1c-1.68-.71-3.35-1.2-5,.18a5.74,5.74,0,0,0-3.48.33,21.25,21.25,0,0,1-9.6,1.34,6.1,6.1,0,0,0-3.05.61c-2.76,1.17-5.27,2.84-8.22,3.65a4.81,4.81,0,0,0-3.61,3.83,5.3,5.3,0,0,1-3.4,4.07c-4.69,1.89-8,5.49-11.29,9-2.34,2.44-5.24,3.88-8,5.58-4,2.48-8.14,4.71-10.6,9a5.54,5.54,0,0,1-2.35,2c-3.79,1.87-6,5.35-8.73,8.31a9.08,9.08,0,0,0-1.82,4.31,11.1,11.1,0,0,1-4.64,7c-3,2.12-6,4.3-8.75,6.7-3.25,2.79-7,3.88-11.14,4.41a4.55,4.55,0,0,0-1.55.2c-4.53,2.49-9.19,1-13.84.59-6.56-.53-11.88,2-15.85,7.24a8.55,8.55,0,0,1-3.13,2.81c-3.21,1.56-5.76,4.09-8.59,6.21a2.85,2.85,0,0,0-1.35,1.88c-.33,4.64-3.19,8.94-1.89,13.81a8.07,8.07,0,0,1-.19,3.9c-.14.64-.6,1.32-.48,1.89,1.3,6.39-2.83,11.8-3.2,17.87a3.87,3.87,0,0,1-1.67,3,63.15,63.15,0,0,1-7,5.06c-2.45,1.33-4.57,3-6.89,4.5-6.89,4.33-13.31,9.3-19.85,14.1-3.15,2.31-4.6,6-7.64,8.35-.9.69-.64,2.21-.85,3.36-.65,3.61-1.41,7-4.66,9.55-2.13,1.7-3.35,4.57-4.91,7a3.53,3.53,0,0,0-.49,3,6.76,6.76,0,0,1,.34,2.3c-.73,9.21,1.42,7.15-6.73,13.24-2.19,1.64-4.09,3.72-6.78,4.64-.12,0-.31.09-.34.18-1.2,3.75-5.64,6-5,10.56.7,5-1.69,8.25-5.43,11-2.14,1.54-4.31,3-4.39,6.11,0,1.43-1.3,2.21-2.34,3s-2.22,1.61-2.25,3.07c-.06,3.36-2.14,5.87-3.59,8.59-1.58,3-2.61,5.69-.31,8.74a2.28,2.28,0,0,1-.63,3.45,5.78,5.78,0,0,0-2.41,4.71,4.88,4.88,0,0,1-2.3,3.91c-2,1.34-3.27,3.28-4.77,5.11-3.7,4.52-7.44,9.08-12.59,12.15a11.74,11.74,0,0,0-3.57,3.05,7.75,7.75,0,0,1-2.63,2.29c-5.47,2.95-8.84,7.22-8.36,13.8h0l-4.46,4.6a3.36,3.36,0,0,0-2.15,4l-2.3,1.81c-3.88-1.26-4.79-.74-5.82,3.31l-.75,1.07a32.14,32.14,0,0,0-6.32,8.89c-2.49,4.83-4.28,10-6.31,15.09a4.7,4.7,0,0,1-1.4,2.3,7,7,0,0,0-2.59,3.85c-1.75,5.68-6,10-8.27,15.4a5.71,5.71,0,0,1-1.63,2.17c-4.87,3.91-8.44,8.8-11.58,14.17a23,23,0,0,1-6.85,6.94c-1.3.91-2.56,1.86-2.79,3.61s-1.3,2.4-2.68,3.11c-2.56,1.3-5,2.79-7.52,4.22a11.87,11.87,0,0,0-4.33,4.49c-2.42,4.3-6.25,7.65-8.09,12.33a5.44,5.44,0,0,1-1.59,1.7c-4.35,3.81-5.08,8.11-2.42,13.47,1.19,2.4,3,4.77,1.42,7.72a1.3,1.3,0,0,0,0,1.14c2.83,3.54,0,6.68-1.66,8.79-2.92,3.65-2.54,7.48-1.81,11.1,1,5-.51,8.71-4.14,11.77-1.72,1.45-2.54,3.14-1.94,5.17,1.29,4.35-.69,8.28-2.52,11.56s-5.71,5.66-9.77,6.82l-1.55.06a3.73,3.73,0,0,0-3.45-.15h0a2.4,2.4,0,0,0-2.24-.48,1.27,1.27,0,0,0-.48-.34,1.63,1.63,0,0,0-2.17-.33c-1.32.65-2.57,0-3.85-.19a1.54,1.54,0,0,0-2.11.23l-1.39.72c-3.94.87-7.63-.11-11.26-1.52-1.55-1.34-3.21-1.08-4.89-.29a35.08,35.08,0,0,0-10.55-2.22,41.9,41.9,0,0,1-13.82-2.24,18,18,0,0,0-5.69-1.26l-2-2.26c-.87-1.17-2-1.09-3.25-.75a19.65,19.65,0,0,0-9.94-4.14,50.25,50.25,0,0,1-20.09-7,8.08,8.08,0,0,0-4.89-1.11,10.44,10.44,0,0,1-7.75-2,9.66,9.66,0,0,0-4.4-1.53c-4.65-.87-9.29-1.85-13.93-2.79-1.92-1.09-3.72-.06-5.56.31-3.58-1.89-7.51-1.87-11.39-2.06-3.64-.17-7.29-.15-10.93-.31-4.23-.19-7.51-2.7-11-4.66-2.72-1.52-5.26-3.42-8.54-3.63-1.68-1.63-3.9-1.3-5.92-1.46-2.32-.19-4.68,0-7,0a9.27,9.27,0,0,1-5.24-1.29,7.75,7.75,0,0,0-9.49,0,9.11,9.11,0,0,1,.75,1.37,9.11,9.11,0,0,0-.75-1.37v0c-3.44-4.11-7.84-4.77-12.77-3.55l-1.19.82c-1.25.06-2.53-.22-3.73.35-3.78-.23-6.54-2.43-9.28-4.7-1.87-2.89-4.45-4.22-7.91-5-6.57-1.42-11.66,1.76-17,4.37-1.58.78-3,1.54-4.76,1.16a5.79,5.79,0,0,0-4.17.44c-1.74.94-3.63.3-5.37-.08a20.14,20.14,0,0,0-10.78.68c-2.75.9-5.34,2.07-6.26,5.21h0c-1.14.42-2.11,1.34-3.44,1.17-1-.95-2-1.3-3.07-.16l-1.38.72a1,1,0,0,0-1.46.73c-2,1.67-4,3.26-6.76,3.66a12.87,12.87,0,0,0-3.2,1.41,2.28,2.28,0,0,0-1.87.39,24.34,24.34,0,0,1-14.26,5.71l-1-.16c-1.73-1-3.47-1.77-5.35-.33a21,21,0,0,0-5.06,3.61,1.5,1.5,0,0,0-1.73.5l-1.19.8C1000,451.11,993.5,452,987.24,454c-1.22.4-2.48,1-3.54-.34l-3.76,2.87a1.37,1.37,0,0,1,.34,1.42c-.14.36-.48.66-.53,1-.68,4-2.46,7.53-4.37,11-1.76,1.25-2.88,3.1-4.3,4.66-4.32,2.46-8,5.83-11.92,8.8-2.34,1.75-4.61,3.41-7.78,2.9a3.19,3.19,0,0,0-2.49.94l-1.2.52a11.19,11.19,0,0,0-5.9,1c-1.28.46-2.61,1.32-3.78-.23l-9.39,7.16-.63.48-4.38,3.34c2.09,3,2.1,4.41.11,7a15.51,15.51,0,0,0-1.6,2.21,4.82,4.82,0,0,1-4.64,2.94c-2.86,0-4.33,1.58-5.22,4.39a14.79,14.79,0,0,1-6,8.19c-3.24,2.26-7.09,4.28-8.9,8.36a10.39,10.39,0,0,1-3.88,4.87c-4.34,2.61-6.87,6.71-9.17,11a6.82,6.82,0,0,1-2.23,2.68c-3.25,2.05-5.63,5.07-8.51,7.54a5.55,5.55,0,0,0-1.73,2.09c-2,5.77-4.49,11.26-3.62,17.82a133.09,133.09,0,0,1,1.15,16,11.75,11.75,0,0,0,4.44,9.17c2.28,2,3.91,4.55,6.28,6.46,1.74,1.4,1.8,4,1.56,5.87-.57,4.59,1,8.54,2.8,12.44,1.46,3.12,2,6.47,3,9.71.5,1.59.85,3.54.13,5-1.52,3.16-.32,6.33-.58,9.48a4.21,4.21,0,0,0,1.12,2.86,9.93,9.93,0,0,1,1.77,8.54c-.49,2.17-.92,4.35-1.35,6.54s-1.53,3.78-3.93,4.34c-3.86.91-6.23,3.15-6.13,7.44.09,3.88-1.8,7.31-2.59,11a3.1,3.1,0,0,1-1.28,1.92,5.76,5.76,0,0,0-2.43,3.89,1.8,1.8,0,0,1-.51,1,25.49,25.49,0,0,0-4.62,5.73,7,7,0,0,1-1.9,1.37l58.71,77L1084.8,995.17l412-314.32,109.57-83.6,2.5-1.91,2.5-1.91,525.92-401.26,29.43-22.45L2059.29,29l-5.73-7.51L2029.69-9.83a9.13,9.13,0,0,1-7.15,2.66"/></g></g></svg>